# Blender 4.0.2
# www.blender.org
mtllib untitled1.mtl
o Steve
v -0.126453 -0.101600 0.050800
v 0.076747 -0.101600 0.050800
v -0.126453 -0.101600 -0.050800
v 0.076747 -0.101600 -0.050800
v -0.126453 0.203200 0.050800
v 0.076747 0.203200 0.050800
v -0.126453 0.203200 -0.050800
v 0.076747 0.203200 -0.050800
v -0.126453 0.203200 0.101600
v 0.076747 0.203200 0.101600
v -0.126453 0.203200 -0.101600
v 0.076747 0.203200 -0.101600
v -0.126453 0.406400 0.101600
v 0.076747 0.406400 0.101600
v -0.126453 0.406400 -0.101600
v 0.076747 0.406400 -0.101600
v 0.076747 -0.101600 0.050800
v 0.178347 -0.101600 0.050800
v 0.076747 -0.101600 -0.050800
v 0.178347 -0.101600 -0.050800
v 0.076747 0.203200 0.050800
v 0.178347 0.203200 0.050800
v 0.076747 0.203200 -0.050800
v 0.178347 0.203200 -0.050800
v -0.228053 -0.101600 0.050800
v -0.126453 -0.101600 0.050800
v -0.228053 -0.101600 -0.050800
v -0.126453 -0.101600 -0.050800
v -0.228053 0.203200 0.050800
v -0.126453 0.203200 0.050800
v -0.228053 0.203200 -0.050800
v -0.126453 0.203200 -0.050800
v -0.024853 -0.406400 0.050800
v 0.076747 -0.406400 0.050800
v -0.024853 -0.406400 -0.050800
v 0.076747 -0.406400 -0.050800
v -0.024853 -0.101600 0.050800
v 0.076747 -0.101600 0.050800
v -0.024853 -0.101600 -0.050800
v 0.076747 -0.101600 -0.050800
v -0.126453 -0.406400 0.050800
v -0.024853 -0.406400 0.050800
v -0.126453 -0.406400 -0.050800
v -0.024853 -0.406400 -0.050800
v -0.126453 -0.101600 0.050800
v -0.024853 -0.101600 0.050800
v -0.126453 -0.101600 -0.050800
v -0.024853 -0.101600 -0.050800
vn -0.0000 -1.0000 -0.0000
vn -0.0000 1.0000 -0.0000
vn -0.0000 -0.0000 1.0000
vn 1.0000 -0.0000 -0.0000
vn -0.0000 -0.0000 -1.0000
vn -1.0000 -0.0000 -0.0000
vt 0.437500 0.750000
vt 0.562375 0.687500
vt 0.437500 0.687500
vt 0.312500 0.750000
vt 0.312500 0.687500
vt 0.437500 0.500000
vt 0.312500 0.500000
vt 0.500000 0.500000
vt 0.625000 0.500000
vt 0.500000 0.687500
vt 0.250000 0.687500
vt 0.250000 0.500000
vt 0.375000 1.000000
vt 0.250000 0.875000
vt 0.250000 1.000000
vt 0.125000 1.000000
vt 0.125000 0.875000
vt 0.250000 0.750000
vt 0.125000 0.750000
vt 0.375000 0.750000
vt 0.500000 0.750000
vt 0.375000 0.875000
vt 0.000000 0.875000
vt 0.000000 0.750000
vt 0.625000 0.250000
vt 0.687500 0.187500
vt 0.625000 0.187500
vt 0.562500 0.250000
vt 0.562500 0.187500
vt 0.625000 0.000000
vt 0.562500 0.000000
vt 0.687500 0.000000
vt 0.750000 0.000000
vt 0.500000 0.187500
vt 0.500000 0.000000
vt 0.750000 0.750000
vt 0.812500 0.687500
vt 0.750000 0.687500
vt 0.687500 0.750000
vt 0.687500 0.687500
vt 0.750000 0.500000
vt 0.687500 0.500000
vt 0.812500 0.500000
vt 0.875000 0.500000
vt 0.625000 0.687500
vt 0.375000 0.250000
vt 0.437500 0.187500
vt 0.375000 0.187500
vt 0.312500 0.250000
vt 0.312500 0.187500
vt 0.375000 0.000000
vt 0.312500 0.000000
vt 0.437500 0.000000
vt 0.250000 0.187500
vt 0.250000 0.000000
vt 0.187500 0.687500
vt 0.125000 0.687500
vt 0.062500 0.750000
vt 0.062500 0.687500
vt 0.125000 0.500000
vt 0.062500 0.500000
vt 0.187500 0.500000
vt 0.000000 0.687500
vt 0.000000 0.500000
vt 0.562500 0.750000
vt 0.500000 0.875000
vt 0.125000 0.875000
vt 0.687500 0.250000
vt 0.750000 0.187500
vt 0.812500 0.750000
vt 0.875000 0.687500
vt 0.437500 0.250000
vt 0.187500 0.750000
s 1
usemtl 02_-_Default
f 3/1/1 2/2/1 1/3/1
f 6/3/2 7/4/2 5/5/2
f 2/6/3 5/5/3 1/7/3
f 4/8/4 6/3/4 2/6/4
f 3/9/5 8/10/5 4/8/5
f 1/7/6 7/11/6 3/12/6
f 11/13/1 10/14/1 9/15/1
f 14/14/2 15/16/2 13/17/2
f 10/18/3 13/17/3 9/19/3
f 12/20/4 14/14/4 10/18/4
f 11/21/5 16/22/5 12/20/5
f 9/19/6 15/23/6 11/24/6
f 19/25/1 18/26/1 17/27/1
f 22/27/2 23/28/2 21/29/2
f 18/30/3 21/29/3 17/31/3
f 20/32/4 22/27/4 18/30/4
f 19/33/5 24/26/5 20/32/5
f 17/31/6 23/34/6 19/35/6
f 27/36/1 26/37/1 25/38/1
f 30/38/2 31/39/2 29/40/2
f 26/41/3 29/40/3 25/42/3
f 28/43/4 30/38/4 26/41/4
f 27/44/5 32/37/5 28/43/5
f 25/42/6 31/45/6 27/9/6
f 35/46/1 34/47/1 33/48/1
f 38/48/2 39/49/2 37/50/2
f 34/51/3 37/50/3 33/52/3
f 36/53/4 38/48/4 34/51/4
f 35/35/5 40/47/5 36/53/5
f 33/52/6 39/54/6 35/55/6
f 43/19/1 42/56/1 41/57/1
f 46/57/2 47/58/2 45/59/2
f 42/60/3 45/59/3 41/61/3
f 44/62/4 46/57/4 42/60/4
f 43/12/5 48/56/5 44/62/5
f 41/61/6 47/63/6 43/64/6
f 3/1/1 4/65/1 2/2/1
f 6/3/2 8/1/2 7/4/2
f 2/6/3 6/3/3 5/5/3
f 4/8/4 8/10/4 6/3/4
f 3/9/5 7/45/5 8/10/5
f 1/7/6 5/5/6 7/11/6
f 11/13/1 12/22/1 10/14/1
f 14/14/2 16/15/2 15/16/2
f 10/18/3 14/14/3 13/17/3
f 12/20/4 16/22/4 14/14/4
f 11/21/5 15/66/5 16/22/5
f 9/19/6 13/67/6 15/23/6
f 19/25/1 20/68/1 18/26/1
f 22/27/2 24/25/2 23/28/2
f 18/30/3 22/27/3 21/29/3
f 20/32/4 24/26/4 22/27/4
f 19/33/5 23/69/5 24/26/5
f 17/31/6 21/29/6 23/34/6
f 27/36/1 28/70/1 26/37/1
f 30/38/2 32/36/2 31/39/2
f 26/41/3 30/38/3 29/40/3
f 28/43/4 32/37/4 30/38/4
f 27/44/5 31/71/5 32/37/5
f 25/42/6 29/40/6 31/45/6
f 35/46/1 36/72/1 34/47/1
f 38/48/2 40/46/2 39/49/2
f 34/51/3 38/48/3 37/50/3
f 36/53/4 40/47/4 38/48/4
f 35/35/5 39/34/5 40/47/5
f 33/52/6 37/50/6 39/54/6
f 43/19/1 44/73/1 42/56/1
f 46/57/2 48/19/2 47/58/2
f 42/60/3 46/57/3 45/59/3
f 44/62/4 48/56/4 46/57/4
f 43/12/5 47/11/5 48/56/5
f 41/61/6 45/59/6 47/63/6
